<svg width="61" height="61" viewBox="0 0 61 61"  xmlns="http://www.w3.org/2000/svg" xmlns:xlink="http://www.w3.org/1999/xlink" overflow="hidden"><defs><clipPath id="clip0"><rect x="107" y="216" width="61" height="61"/></clipPath></defs><g clip-path="url(#clip0)" transform="translate(-107 -216)"><path d="M136.229 235.126 136.229 237.668C136.674 237.668 137.055 237.604 137.5 237.604 137.945 237.604 138.326 237.604 138.771 237.668L138.771 235.126C141.249 235.253 143.6 235.761 145.76 236.587L144.807 238.875C145.633 239.193 146.396 239.51 147.158 239.892L148.111 237.541C149.319 238.113 150.399 238.811 151.479 239.574L154.211 236.842C149.573 233.347 143.791 231.25 137.5 231.25 122.059 231.25 109.542 243.768 109.542 259.208L109.542 261.75 113.354 261.75 113.354 259.208C113.354 256.603 113.799 254.061 114.561 251.71L116.912 252.664C117.167 251.837 117.484 251.075 117.802 250.312L115.451 249.359C116.404 247.199 117.739 245.166 119.264 243.45L121.043 245.229C121.615 244.594 122.186 243.958 122.822 243.386L121.043 241.607C122.758 240.019 124.728 238.621 126.889 237.541L127.842 239.892C128.604 239.51 129.367 239.193 130.193 238.875L129.24 236.524C131.4 235.698 133.751 235.253 136.229 235.126Z" stroke="#4A452A" stroke-width="0.635381" fill="#9BBB59"/><path d="M160.439 243.196 157.706 245.928C158.405 247.008 159.041 248.152 159.549 249.296L157.198 250.312C157.516 251.075 157.833 251.901 158.087 252.664L160.439 251.71C161.201 254.061 161.646 256.603 161.646 259.208L161.646 261.75 165.458 261.75 165.458 259.208C165.458 253.235 163.616 247.771 160.439 243.196Z" stroke="#4A452A" stroke-width="0.635381" fill="#9BBB59"/><path d="M135.721 258.065C135.594 258.128 135.53 258.255 135.403 258.382 134.514 259.462 134.641 261.051 135.721 262.004 136.801 262.894 138.39 262.767 139.343 261.686L159.104 238.24 135.721 258.065Z" stroke="#4A452A" stroke-width="0.635381" fill="#9BBB59"/></g></svg>